<svg xmlns="http://www.w3.org/2000/svg" width="512" height="512" viewBox="0 0 256 256" role="img" aria-labelledby="title desc">
<title id="title">通透軟Q炫彩灰貓</title><desc id="desc">圓潤果凍灰貓，擁有獨立圓角三角貓耳、緩慢物理回彈與擺動尾巴</desc>
<defs>
<linearGradient id="r" x1="32" y1="48" x2="224" y2="215" gradientUnits="userSpaceOnUse"><stop stop-color="#62fff1"/><stop offset=".2" stop-color="#70baff"/><stop offset=".4" stop-color="#be7aff"/><stop offset=".6" stop-color="#ff78c6"/><stop offset=".8" stop-color="#ffdc88"/><stop offset="1" stop-color="#72fff0"/></linearGradient>
<radialGradient id="g" cx="36%" cy="19%" r="87%"><stop stop-color="#aaa9bd" stop-opacity=".72"/><stop offset=".36" stop-color="#5a586b" stop-opacity=".64"/><stop offset=".74" stop-color="#292733" stop-opacity=".81"/><stop offset="1" stop-color="#111018" stop-opacity=".93"/></radialGradient>
<linearGradient id="b"><stop stop-color="#61fff2" stop-opacity=".44"/><stop offset=".28" stop-color="#74bfff" stop-opacity=".2"/><stop offset=".52" stop-color="#dd8cff" stop-opacity=".26"/><stop offset=".76" stop-color="#ff91bd" stop-opacity=".3"/><stop offset="1" stop-color="#ffe28b" stop-opacity=".46"/></linearGradient>
<linearGradient id="p" x2="0" y2="1"><stop stop-color="#fff3fb" stop-opacity=".9"/><stop offset="1" stop-color="#dc8fc7" stop-opacity=".28"/></linearGradient>
<filter id="o" x="-60%" y="-60%" width="220%" height="220%"><feGaussianBlur stdDeviation="4" result="x"/><feMerge><feMergeNode in="x"/><feMergeNode in="SourceGraphic"/></feMerge></filter>
<filter id="s" x="-60%" y="-60%" width="220%" height="220%"><feGaussianBlur stdDeviation="6"/></filter>
<filter id="e" x="-100%" y="-100%" width="300%" height="300%"><feGaussianBlur stdDeviation="1.8" result="x"/><feMerge><feMergeNode in="x"/><feMergeNode in="SourceGraphic"/></feMerge></filter>
</defs>
<ellipse cx="128" cy="212" rx="78" ry="7" fill="url(#r)" opacity=".4" filter="url(#s)"><animate attributeName="rx" values="78;78;78;88;66;82;75;78;78;78;84;69;79;77;78" keyTimes="0;.18;.31;.34;.39;.45;.51;.58;.76;.82;.84;.88;.92;.96;1" dur="9.6s" repeatCount="indefinite"/></ellipse><ellipse cx="128" cy="211" rx="70" ry="2.2" fill="url(#r)" opacity=".7"><animate attributeName="rx" values="70;70;70;82;62;76;68;70;70;70;78;64;73;69;70" keyTimes="0;.18;.31;.34;.39;.45;.51;.58;.76;.82;.84;.88;.92;.96;1" dur="9.6s" repeatCount="indefinite"/></ellipse>
<g fill="none" stroke-linecap="round"><path d="M182 181C217 188 235 163 224 138C217 121 222 106 237 106" stroke="url(#r)" stroke-width="10" opacity=".68" filter="url(#o)"><animate attributeName="d" values="M182 181C217 188 235 163 224 138C217 121 222 106 237 106;M182 181C215 197 242 179 235 154C230 136 236 121 246 125;M182 181C213 179 226 150 216 127C210 112 215 96 231 95;M182 181C217 188 235 163 224 138C217 121 222 106 237 106" dur="2.5s" repeatCount="indefinite"/></path><path d="M182 181C217 188 235 163 224 138C217 121 222 106 237 106" stroke="#3a3845" stroke-width="6"><animate attributeName="d" values="M182 181C217 188 235 163 224 138C217 121 222 106 237 106;M182 181C215 197 242 179 235 154C230 136 236 121 246 125;M182 181C213 179 226 150 216 127C210 112 215 96 231 95;M182 181C217 188 235 163 224 138C217 121 222 106 237 106" dur="2.5s" repeatCount="indefinite"/></path></g>
<g transform="translate(128 211)"><g><animateTransform attributeName="transform" type="scale" values="1 1;1 1;.98 1.025;1.18 .73;.88 1.2;1.11 .89;.97 1.07;1 1;1 1;1 1;1.11 .84;.93 1.14;1.06 .94;.98 1.03;1 1" keyTimes="0;.18;.31;.34;.39;.45;.51;.58;.76;.82;.84;.88;.92;.96;1" dur="9.6s" repeatCount="indefinite"/><g transform="translate(-128 -211)">
<g id="leftEar"><animateTransform attributeName="transform" type="rotate" values="-8 84 88;-8 84 88;-14 84 88;-5 84 88;-10 84 88;-8 84 88;-8 84 88" keyTimes="0;.23;.26;.3;.34;.39;1" dur="8.1s" repeatCount="indefinite"/><path d="M63 95Q59 94 62 87L70 60Q72 52 78 56L101 82Q106 88 99 92Z" fill="url(#g)" stroke="url(#r)" stroke-width="3.6" stroke-linejoin="round" filter="url(#o)"/><path d="M70 82L75 63Q76 60 79 63L93 81Z" fill="url(#p)" opacity=".8"/></g><use href="#leftEar" transform="translate(256 0) scale(-1 1)"/>
<path d="M128 76C80 76 49 103 49 149C49 190 68 211 128 211C188 211 207 190 207 149C207 103 176 76 128 76Z" fill="url(#g)" stroke="url(#r)" stroke-width="3.7" filter="url(#o)"/>
<path d="M60 172C78 199 101 209 128 209C156 209 181 199 197 172C192 204 176 214 128 214C79 214 64 204 60 172Z" fill="url(#b)" opacity=".64" filter="url(#s)"/><path d="M68 114C76 93 98 81 119 79C95 85 80 100 74 121C67 145 71 167 82 185C63 166 60 138 68 114Z" fill="#fff" opacity=".14"/>
<g fill="#fff" filter="url(#e)"><ellipse cx="106" cy="140" rx="8" ry="8.7"/><ellipse cx="157" cy="140" rx="8" ry="8.7"/><animate attributeName="opacity" values="1;1;0;1;1" keyTimes="0;.68;.71;.75;1" dur="3.7s" repeatCount="indefinite"/></g>
<path d="M126 154C127 152 130 152 131 154C132 156 130 158 128 159C126 158 124 156 126 154Z" fill="#ffd8ed"/><path d="M128 159C128 165 123 167 119 163M128 159C128 165 133 167 137 163" fill="none" stroke="#fff" stroke-width="2.3" stroke-linecap="round"/>
<g fill="none" stroke="#eeeafa" stroke-width="1.4" stroke-linecap="round" opacity=".76"><path d="M91 158C77 155 67 155 56 157"/><path d="M91 164C76 165 66 169 57 173"/><path d="M165 158C180 154 190 155 201 158"/><path d="M165 164C180 165 190 169 199 173"/></g>
</g></g></g>
<g fill="#fff" filter="url(#e)"><circle cx="43" cy="108" r="1.7"><animate attributeName="opacity" values=".2;1;.2" dur="1.5s" repeatCount="indefinite"/></circle><circle cx="215" cy="82" r="1.3"><animate attributeName="opacity" values="1;.15;1" dur="1.8s" repeatCount="indefinite"/></circle><circle cx="224" cy="190" r="1.5"><animate attributeName="opacity" values=".15;1;.15" dur="1.3s" repeatCount="indefinite"/></circle></g>
</svg>
